<?xml version="1.0" encoding="utf-8"?>
<!-- Generator: Adobe Illustrator 16.0.0, SVG Export Plug-In . SVG Version: 6.00 Build 0)  -->
<!DOCTYPE svg PUBLIC "-//W3C//DTD SVG 1.1//EN" "http://www.w3.org/Graphics/SVG/1.1/DTD/svg11.dtd">
<svg version="1.1" id="Capa_1" xmlns="http://www.w3.org/2000/svg" xmlns:xlink="http://www.w3.org/1999/xlink" x="0px" y="0px"
	 width="1440px" height="868px" viewBox="0 0 1440 868" enable-background="new 0 0 1440 868" xml:space="preserve">
<radialGradient id="SVGID_1_" cx="-398.5122" cy="813.8057" r="94.478" gradientTransform="matrix(0.097 0.6574 0.8115 -0.1197 -130.9551 858.9202)" gradientUnits="userSpaceOnUse">
	<stop  offset="0" style="stop-color:#82FF8A"/>
	<stop  offset="0.9996" style="stop-color:#82FFB7"/>
</radialGradient>
<path fill="url(#SVGID_1_)" d="M505.12,540.799c4.492,30.447-38.904,71.305-61.922,75.241
	c-30.729,5.257-69.674-24.719-74.166-55.165c-4.491-30.445,22.332-59.621,59.911-65.165
	C466.521,490.167,500.629,510.354,505.12,540.799L505.12,540.799z"/>
<radialGradient id="SVGID_2_" cx="-75.4375" cy="665.8701" r="332.1172" gradientTransform="matrix(1 0 0 -1 564 1103)" gradientUnits="userSpaceOnUse">
	<stop  offset="0" style="stop-color:#82FF8A"/>
	<stop  offset="0.9996" style="stop-color:#82FFB7"/>
</radialGradient>
<polyline fill="none" stroke="url(#SVGID_2_)" stroke-width="10" stroke-miterlimit="10" points="152.211,757.76 597.5,325.5 
	597.5,147.088 727.979,147.088 727.979,117.913 828.396,117.913 "/>
<radialGradient id="SVGID_3_" cx="434.4834" cy="1344.0811" r="90.6549" gradientTransform="matrix(3.2487 0 0 -3.2487 -400.2762 4667.0186)" gradientUnits="userSpaceOnUse">
	<stop  offset="0" style="stop-color:#82FF8A"/>
	<stop  offset="0.9996" style="stop-color:#82FFB7"/>
</radialGradient>
<path fill="url(#SVGID_3_)" d="M1226.061,268.171c150.449,0,272.406,121.96,272.406,272.408
	c0,150.45-121.957,272.409-272.406,272.409c-150.448,0-272.41-121.959-272.41-272.409
	C953.65,390.131,1075.611,268.171,1226.061,268.171z"/>
<radialGradient id="SVGID_4_" cx="-186.4082" cy="1345.4102" r="289.1471" gradientTransform="matrix(1 0 0 -1 882 1800)" gradientUnits="userSpaceOnUse">
	<stop  offset="0" style="stop-color:#82FF8A"/>
	<stop  offset="0.9996" style="stop-color:#82FFB7"/>
</radialGradient>
<path fill="url(#SVGID_4_)" d="M675.625,653.263c0,154.748-154.5,155.249-154.5,155.249s220.334,0,661,0v-311h-353
	C726.792,497.512,675.625,549.429,675.625,653.263L675.625,653.263z"/>
<path fill="#424242" d="M1303.953,310.345c-136.047,0-43.953,126.691-197.748,125.96c-153.794-0.729-223.838,0.731-223.838,154.778
	c0,102.698-82.685,153.794-248.043,153.289c-325.532,0-367.014,0-435.825,0S0,744.372,0,868.593
	c120-0.396,540.145,0.005,1260.432,0.005H1440c0-456.214,0-684.923,0-684.923S1440,310.345,1303.953,310.345L1303.953,310.345z"/>
<path fill="#424242" d="M154.505,732.539"/>
<circle fill="#424242" cx="433.523" cy="516.274" r="86.391"/>
<radialGradient id="SVGID_5_" cx="378.6562" cy="947.0068" r="9.3841" gradientTransform="matrix(1.3428 -0.0068 -0.0068 -1.3428 362.4762 1388.2601)" gradientUnits="userSpaceOnUse">
	<stop  offset="0" style="stop-color:#82FF8A"/>
	<stop  offset="0.9996" style="stop-color:#82FFB7"/>
</radialGradient>
<circle fill="url(#SVGID_5_)" cx="856.014" cy="117.913" r="5.288"/>
<radialGradient id="SVGID_6_" cx="410.0566" cy="946.8477" r="9.3869" gradientTransform="matrix(1.3428 -0.0068 -0.0068 -1.3428 362.4762 1388.2601)" gradientUnits="userSpaceOnUse">
	<stop  offset="0" style="stop-color:#82FF8A"/>
	<stop  offset="0.9996" style="stop-color:#82FFB7"/>
</radialGradient>
<circle fill="url(#SVGID_6_)" cx="898.18" cy="117.913" r="5.288"/>
<radialGradient id="SVGID_7_" cx="441.459" cy="946.6904" r="9.3853" gradientTransform="matrix(1.3428 -0.0068 -0.0068 -1.3428 362.4762 1388.2601)" gradientUnits="userSpaceOnUse">
	<stop  offset="0" style="stop-color:#82FF8A"/>
	<stop  offset="0.9996" style="stop-color:#82FFB7"/>
</radialGradient>
<circle fill="url(#SVGID_7_)" cx="940.346" cy="117.913" r="5.288"/>
<radialGradient id="SVGID_8_" cx="472.8584" cy="946.5312" r="9.3855" gradientTransform="matrix(1.3428 -0.0068 -0.0068 -1.3428 362.4762 1388.2601)" gradientUnits="userSpaceOnUse">
	<stop  offset="0" style="stop-color:#82FF8A"/>
	<stop  offset="0.9996" style="stop-color:#82FFB7"/>
</radialGradient>
<circle fill="url(#SVGID_8_)" cx="982.512" cy="117.913" r="5.288"/>
<radialGradient id="SVGID_9_" cx="504.2612" cy="946.3711" r="9.3875" gradientTransform="matrix(1.3428 -0.0068 -0.0068 -1.3428 362.4762 1388.2601)" gradientUnits="userSpaceOnUse">
	<stop  offset="0" style="stop-color:#82FF8A"/>
	<stop  offset="0.9996" style="stop-color:#82FFB7"/>
</radialGradient>
<circle fill="url(#SVGID_9_)" cx="1024.678" cy="117.913" r="5.288"/>
<radialGradient id="SVGID_10_" cx="535.6626" cy="946.2119" r="9.3875" gradientTransform="matrix(1.3428 -0.0068 -0.0068 -1.3428 362.4762 1388.2601)" gradientUnits="userSpaceOnUse">
	<stop  offset="0" style="stop-color:#82FF8A"/>
	<stop  offset="0.9996" style="stop-color:#82FFB7"/>
</radialGradient>
<circle fill="url(#SVGID_10_)" cx="1066.844" cy="117.913" r="5.288"/>
<radialGradient id="SVGID_11_" cx="567.061" cy="946.0527" r="9.3858" gradientTransform="matrix(1.3428 -0.0068 -0.0068 -1.3428 362.4762 1388.2601)" gradientUnits="userSpaceOnUse">
	<stop  offset="0" style="stop-color:#82FF8A"/>
	<stop  offset="0.9996" style="stop-color:#82FFB7"/>
</radialGradient>
<circle fill="url(#SVGID_11_)" cx="1109.01" cy="117.913" r="5.288"/>
<radialGradient id="SVGID_12_" cx="598.4614" cy="945.8945" r="9.3829" gradientTransform="matrix(1.3428 -0.0068 -0.0068 -1.3428 362.4762 1388.2601)" gradientUnits="userSpaceOnUse">
	<stop  offset="0" style="stop-color:#82FF8A"/>
	<stop  offset="0.9996" style="stop-color:#82FFB7"/>
</radialGradient>
<circle fill="url(#SVGID_12_)" cx="1151.176" cy="117.913" r="5.288"/>
<radialGradient id="SVGID_13_" cx="629.8628" cy="945.7354" r="9.3889" gradientTransform="matrix(1.3428 -0.0068 -0.0068 -1.3428 362.4762 1388.2601)" gradientUnits="userSpaceOnUse">
	<stop  offset="0" style="stop-color:#82FF8A"/>
	<stop  offset="0.9996" style="stop-color:#82FFB7"/>
</radialGradient>
<circle fill="url(#SVGID_13_)" cx="1193.342" cy="117.913" r="5.288"/>
<radialGradient id="SVGID_14_" cx="661.2632" cy="945.5771" r="9.3875" gradientTransform="matrix(1.3428 -0.0068 -0.0068 -1.3428 362.4762 1388.2601)" gradientUnits="userSpaceOnUse">
	<stop  offset="0" style="stop-color:#82FF8A"/>
	<stop  offset="0.9996" style="stop-color:#82FFB7"/>
</radialGradient>
<circle fill="url(#SVGID_14_)" cx="1235.508" cy="117.913" r="5.288"/>
<radialGradient id="SVGID_15_" cx="692.6636" cy="945.4189" r="9.3871" gradientTransform="matrix(1.3428 -0.0068 -0.0068 -1.3428 362.4762 1388.2601)" gradientUnits="userSpaceOnUse">
	<stop  offset="0" style="stop-color:#82FF8A"/>
	<stop  offset="0.9996" style="stop-color:#82FFB7"/>
</radialGradient>
<circle fill="url(#SVGID_15_)" cx="1277.674" cy="117.913" r="5.288"/>
<radialGradient id="SVGID_16_" cx="692.8101" cy="974.2461" r="9.3887" gradientTransform="matrix(1.3428 -0.0068 -0.0068 -1.3428 362.4762 1388.2601)" gradientUnits="userSpaceOnUse">
	<stop  offset="0" style="stop-color:#82FF8A"/>
	<stop  offset="0.9996" style="stop-color:#82FFB7"/>
</radialGradient>
<circle fill="url(#SVGID_16_)" cx="1277.674" cy="79.203" r="5.288"/>
<radialGradient id="SVGID_17_" cx="692.9536" cy="1003.0732" r="9.3837" gradientTransform="matrix(1.3428 -0.0068 -0.0068 -1.3428 362.4762 1388.2601)" gradientUnits="userSpaceOnUse">
	<stop  offset="0" style="stop-color:#82FF8A"/>
	<stop  offset="0.9996" style="stop-color:#82FFB7"/>
</radialGradient>
<circle fill="url(#SVGID_17_)" cx="1277.674" cy="40.492" r="5.288"/>
<radialGradient id="SVGID_18_" cx="693.0991" cy="1031.9004" r="9.3866" gradientTransform="matrix(1.3428 -0.0068 -0.0068 -1.3428 362.4762 1388.2601)" gradientUnits="userSpaceOnUse">
	<stop  offset="0" style="stop-color:#82FF8A"/>
	<stop  offset="0.9996" style="stop-color:#82FFB7"/>
</radialGradient>
<circle fill="url(#SVGID_18_)" cx="1277.674" cy="1.782" r="5.288"/>
</svg>
