<?xml version="1.0" encoding="utf-8"?>
<!-- Generator: Adobe Illustrator 16.0.0, SVG Export Plug-In . SVG Version: 6.00 Build 0)  -->
<!DOCTYPE svg PUBLIC "-//W3C//DTD SVG 1.1//EN" "http://www.w3.org/Graphics/SVG/1.1/DTD/svg11.dtd">
<svg version="1.1" id="Capa_1" xmlns="http://www.w3.org/2000/svg" xmlns:xlink="http://www.w3.org/1999/xlink" x="0px" y="0px"
	 width="367.095px" height="421.021px" viewBox="889.278 446.979 367.095 421.021"
	 enable-background="new 889.278 446.979 367.095 421.021" xml:space="preserve">
<g id="Capa_2">
	<g>
		
			<radialGradient id="SVGID_1_" cx="348.5" cy="411.8594" r="125.533" gradientTransform="matrix(1 0 0 -1 564 1103)" gradientUnits="userSpaceOnUse">
			<stop  offset="0" style="stop-color:#82FF8A"/>
			<stop  offset="0.9996" style="stop-color:#82FFB7"/>
		</radialGradient>
		<path fill="none" stroke="url(#SVGID_1_)" stroke-width="10" stroke-miterlimit="10" d="M929.5,514.979
			c0,25.166-34,25.166-34,50.331s34,25.165,34,50.329s-34,25.164-34,50.329s34,25.165,34,50.331c0,25.165-34,25.165-34,50.33
			c0,25.168,34,25.168,34,50.337s-34,25.169-34,50.337"/>
	</g>
	<g>
		
			<radialGradient id="SVGID_2_" cx="498.5" cy="453.8594" r="125.533" gradientTransform="matrix(1 0 0 -1 564 1103)" gradientUnits="userSpaceOnUse">
			<stop  offset="0" style="stop-color:#82FF8A"/>
			<stop  offset="0.9996" style="stop-color:#82FFB7"/>
		</radialGradient>
		<path fill="none" stroke="url(#SVGID_2_)" stroke-width="10" stroke-miterlimit="10" d="M1079.5,472.979
			c0,25.166-34,25.166-34,50.331s34,25.165,34,50.329s-34,25.164-34,50.329s34,25.165,34,50.331c0,25.165-34,25.165-34,50.33
			c0,25.168,34,25.168,34,50.337s-34,25.169-34,50.337"/>
	</g>
	<g>
		
			<radialGradient id="SVGID_3_" cx="646.5" cy="479.8594" r="125.533" gradientTransform="matrix(1 0 0 -1 564 1103)" gradientUnits="userSpaceOnUse">
			<stop  offset="0" style="stop-color:#82FF8A"/>
			<stop  offset="0.9996" style="stop-color:#82FFB7"/>
		</radialGradient>
		<path fill="none" stroke="url(#SVGID_3_)" stroke-width="10" stroke-miterlimit="10" d="M1227.5,446.979
			c0,25.166-34,25.166-34,50.331s34,25.165,34,50.329s-34,25.164-34,50.329s34,25.165,34,50.331c0,25.165-34,25.165-34,50.33
			c0,25.168,34,25.168,34,50.337s-34,25.169-34,50.337"/>
	</g>
</g>
<g id="Capa_1_1_" display="none">
	
		<radialGradient id="SVGID_4_" cx="-900.5752" cy="529.1855" r="94.4784" gradientTransform="matrix(0.097 0.6574 -0.8115 0.1197 1007.5828 1028.2196)" gradientUnits="userSpaceOnUse">
		<stop  offset="0" style="stop-color:#82FF8A"/>
		<stop  offset="0.9996" style="stop-color:#82FFB7"/>
	</radialGradient>
	<path display="inline" fill="url(#SVGID_4_)" d="M505.12,540.799c4.492,30.447-38.904,71.305-61.922,75.241
		c-30.729,5.257-69.674-24.719-74.166-55.165c-4.491-30.445,22.332-59.621,59.911-65.165
		C466.521,490.167,500.629,510.354,505.12,540.799L505.12,540.799z"/>
	
		<radialGradient id="SVGID_5_" cx="-639.4375" cy="198.4238" r="323.3238" gradientTransform="matrix(1 0 0 1 1128 257)" gradientUnits="userSpaceOnUse">
		<stop  offset="0" style="stop-color:#82FF8A"/>
		<stop  offset="0.9996" style="stop-color:#82FFB7"/>
	</radialGradient>
	<polyline display="inline" fill="none" stroke="url(#SVGID_5_)" stroke-width="10" stroke-miterlimit="10" points="152.211,757.76 
		597.5,325.5 597.5,183.675 727.979,183.675 727.979,154.5 828.396,154.5 	"/>
	
		<radialGradient id="SVGID_6_" cx="95.0972" cy="-409.1348" r="90.655" gradientTransform="matrix(3.2487 0 0 3.2487 702.2863 1629.6614)" gradientUnits="userSpaceOnUse">
		<stop  offset="0" style="stop-color:#82FF8A"/>
		<stop  offset="0.9996" style="stop-color:#82FFB7"/>
	</radialGradient>
	<path display="inline" fill="url(#SVGID_6_)" d="M1226.061,268.171c150.449,0,272.406,121.96,272.406,272.408
		c0,150.45-121.957,272.409-272.406,272.409c-150.447,0-272.409-121.959-272.409-272.409
		C953.65,390.131,1075.611,268.171,1226.061,268.171z"/>
	
		<radialGradient id="SVGID_7_" cx="-750.4082" cy="-499.4102" r="289.1471" gradientTransform="matrix(1 0 0 1 1446 954)" gradientUnits="userSpaceOnUse">
		<stop  offset="0" style="stop-color:#82FF8A"/>
		<stop  offset="0.9996" style="stop-color:#82FFB7"/>
	</radialGradient>
	<path display="inline" fill="url(#SVGID_7_)" d="M675.625,653.263c0,154.748-154.5,155.249-154.5,155.249s220.334,0,661,0v-311
		h-353C726.792,497.512,675.625,549.429,675.625,653.263L675.625,653.263z"/>
	<path display="inline" fill="#424242" d="M1303.953,310.345c-136.047,0-43.953,126.691-197.748,125.96
		c-153.794-0.729-223.838,0.731-223.838,154.778c0,102.698-82.686,153.794-248.043,153.289c-325.532,0-367.014,0-435.825,0
		S0,744.372,0,868.593c120-0.396,540.145,0.005,1260.432,0.005H1440c0-456.214,0-684.923,0-684.923S1440,310.345,1303.953,310.345
		L1303.953,310.345z"/>
	<path display="inline" fill="#424242" d="M154.505,732.539"/>
	<circle display="inline" fill="#424242" cx="433.523" cy="516.274" r="86.391"/>
	
		<radialGradient id="SVGID_8_" cx="-102.1514" cy="-42.1772" r="9.3835" gradientTransform="matrix(1.3428 -0.0068 0.0068 1.3428 1001.9506 206.5726)" gradientUnits="userSpaceOnUse">
		<stop  offset="0" style="stop-color:#82FF8A"/>
		<stop  offset="0.9996" style="stop-color:#82FFB7"/>
	</radialGradient>
	<circle display="inline" fill="url(#SVGID_8_)" cx="856.014" cy="154.5" r="5.288"/>
	
		<radialGradient id="SVGID_9_" cx="-70.749" cy="-42.0181" r="9.3863" gradientTransform="matrix(1.3428 -0.0068 0.0068 1.3428 1001.9506 206.5726)" gradientUnits="userSpaceOnUse">
		<stop  offset="0" style="stop-color:#82FF8A"/>
		<stop  offset="0.9996" style="stop-color:#82FFB7"/>
	</radialGradient>
	<circle display="inline" fill="url(#SVGID_9_)" cx="898.18" cy="154.5" r="5.288"/>
	
		<radialGradient id="SVGID_10_" cx="-39.3477" cy="-41.8608" r="9.3847" gradientTransform="matrix(1.3428 -0.0068 0.0068 1.3428 1001.9506 206.5726)" gradientUnits="userSpaceOnUse">
		<stop  offset="0" style="stop-color:#82FF8A"/>
		<stop  offset="0.9996" style="stop-color:#82FFB7"/>
	</radialGradient>
	<circle display="inline" fill="url(#SVGID_10_)" cx="940.346" cy="154.5" r="5.288"/>
	
		<radialGradient id="SVGID_11_" cx="-7.9463" cy="-41.7021" r="9.3873" gradientTransform="matrix(1.3428 -0.0068 0.0068 1.3428 1001.9506 206.5726)" gradientUnits="userSpaceOnUse">
		<stop  offset="0" style="stop-color:#82FF8A"/>
		<stop  offset="0.9996" style="stop-color:#82FFB7"/>
	</radialGradient>
	<circle display="inline" fill="url(#SVGID_11_)" cx="982.512" cy="154.5" r="5.288"/>
	
		<radialGradient id="SVGID_12_" cx="23.4556" cy="-41.542" r="9.3875" gradientTransform="matrix(1.3428 -0.0068 0.0068 1.3428 1001.9506 206.5726)" gradientUnits="userSpaceOnUse">
		<stop  offset="0" style="stop-color:#82FF8A"/>
		<stop  offset="0.9996" style="stop-color:#82FFB7"/>
	</radialGradient>
	<circle display="inline" fill="url(#SVGID_12_)" cx="1024.678" cy="154.5" r="5.288"/>
	
		<radialGradient id="SVGID_13_" cx="54.856" cy="-41.3828" r="9.3875" gradientTransform="matrix(1.3428 -0.0068 0.0068 1.3428 1001.9506 206.5726)" gradientUnits="userSpaceOnUse">
		<stop  offset="0" style="stop-color:#82FF8A"/>
		<stop  offset="0.9996" style="stop-color:#82FFB7"/>
	</radialGradient>
	<circle display="inline" fill="url(#SVGID_13_)" cx="1066.844" cy="154.5" r="5.288"/>
	
		<radialGradient id="SVGID_14_" cx="86.2554" cy="-41.2231" r="9.3852" gradientTransform="matrix(1.3428 -0.0068 0.0068 1.3428 1001.9506 206.5726)" gradientUnits="userSpaceOnUse">
		<stop  offset="0" style="stop-color:#82FF8A"/>
		<stop  offset="0.9996" style="stop-color:#82FFB7"/>
	</radialGradient>
	<circle display="inline" fill="url(#SVGID_14_)" cx="1109.01" cy="154.5" r="5.288"/>
	
		<radialGradient id="SVGID_15_" cx="117.6558" cy="-41.0649" r="9.3823" gradientTransform="matrix(1.3428 -0.0068 0.0068 1.3428 1001.9506 206.5726)" gradientUnits="userSpaceOnUse">
		<stop  offset="0" style="stop-color:#82FF8A"/>
		<stop  offset="0.9996" style="stop-color:#82FFB7"/>
	</radialGradient>
	<circle display="inline" fill="url(#SVGID_15_)" cx="1151.176" cy="154.5" r="5.288"/>
	
		<radialGradient id="SVGID_16_" cx="149.0552" cy="-40.9058" r="9.3883" gradientTransform="matrix(1.3428 -0.0068 0.0068 1.3428 1001.9506 206.5726)" gradientUnits="userSpaceOnUse">
		<stop  offset="0" style="stop-color:#82FF8A"/>
		<stop  offset="0.9996" style="stop-color:#82FFB7"/>
	</radialGradient>
	<circle display="inline" fill="url(#SVGID_16_)" cx="1193.342" cy="154.5" r="5.288"/>
	
		<radialGradient id="SVGID_17_" cx="180.4575" cy="-40.748" r="9.3875" gradientTransform="matrix(1.3428 -0.0068 0.0068 1.3428 1001.9506 206.5726)" gradientUnits="userSpaceOnUse">
		<stop  offset="0" style="stop-color:#82FF8A"/>
		<stop  offset="0.9996" style="stop-color:#82FFB7"/>
	</radialGradient>
	<circle display="inline" fill="url(#SVGID_17_)" cx="1235.508" cy="154.5" r="5.288"/>
	
		<radialGradient id="SVGID_18_" cx="211.8569" cy="-40.5898" r="9.3871" gradientTransform="matrix(1.3428 -0.0068 0.0068 1.3428 1001.9506 206.5726)" gradientUnits="userSpaceOnUse">
		<stop  offset="0" style="stop-color:#82FF8A"/>
		<stop  offset="0.9996" style="stop-color:#82FFB7"/>
	</radialGradient>
	<circle display="inline" fill="url(#SVGID_18_)" cx="1277.674" cy="154.5" r="5.288"/>
	
		<radialGradient id="SVGID_19_" cx="212.0044" cy="-69.417" r="9.3887" gradientTransform="matrix(1.3428 -0.0068 0.0068 1.3428 1001.9506 206.5726)" gradientUnits="userSpaceOnUse">
		<stop  offset="0" style="stop-color:#82FF8A"/>
		<stop  offset="0.9996" style="stop-color:#82FFB7"/>
	</radialGradient>
	<circle display="inline" fill="url(#SVGID_19_)" cx="1277.674" cy="115.79" r="5.288"/>
	
		<radialGradient id="SVGID_20_" cx="212.1479" cy="-98.2437" r="9.3837" gradientTransform="matrix(1.3428 -0.0068 0.0068 1.3428 1001.9506 206.5726)" gradientUnits="userSpaceOnUse">
		<stop  offset="0" style="stop-color:#82FF8A"/>
		<stop  offset="0.9996" style="stop-color:#82FFB7"/>
	</radialGradient>
	<circle display="inline" fill="url(#SVGID_20_)" cx="1277.674" cy="77.079" r="5.288"/>
	
		<radialGradient id="SVGID_21_" cx="212.2935" cy="-127.0713" r="9.3866" gradientTransform="matrix(1.3428 -0.0068 0.0068 1.3428 1001.9506 206.5726)" gradientUnits="userSpaceOnUse">
		<stop  offset="0" style="stop-color:#82FF8A"/>
		<stop  offset="0.9996" style="stop-color:#82FFB7"/>
	</radialGradient>
	<circle display="inline" fill="url(#SVGID_21_)" cx="1277.674" cy="38.369" r="5.288"/>
	
		<radialGradient id="SVGID_22_" cx="672.8267" cy="466.7832" r="73.9611" gradientTransform="matrix(1 0 0 -1 564 1103)" gradientUnits="userSpaceOnUse">
		<stop  offset="0" style="stop-color:#82FF8A"/>
		<stop  offset="0.9996" style="stop-color:#82FFB7"/>
	</radialGradient>
	<polygon display="inline" fill="url(#SVGID_22_)" points="1255.828,616.738 1240.508,632.059 1240.508,554.125 1230.508,554.125 
		1230.508,632.064 1215.188,616.744 1208.116,623.816 1235.504,651.204 1262.898,623.81 	"/>
</g>
</svg>
