<svg enable-background="new 0 0 1440 868" height="868" viewBox="0 0 1440 868" width="1440" xmlns="http://www.w3.org/2000/svg" xmlns:xlink="http://www.w3.org/1999/xlink"><linearGradient id="a"><stop offset="0" stop-color="#82ff8a"/><stop offset=".9996" stop-color="#82ffb7"/></linearGradient><radialGradient id="b" cx="535.0718" cy="742.8984" gradientTransform="matrix(1 0 0 -1 564 1103)" gradientUnits="userSpaceOnUse" r="90.6549" xlink:href="#a"/><radialGradient id="c" cx="-142.4487" cy="638.1904" gradientTransform="matrix(1 0 0 -1.2343 564.0005 1209.9835)" gradientUnits="userSpaceOnUse" r="94.477" xlink:href="#a"/><radialGradient id="d" cx="131.5918" cy="648.4102" gradientTransform="matrix(1 0 0 -1 564 1103)" gradientUnits="userSpaceOnUse" r="289.1471" xlink:href="#a"/><radialGradient id="e" cx="811.3760048" cy="488.77837615" gradientUnits="userSpaceOnUse" r="55.76888695" xlink:href="#a"/><circle cx="1165.201" cy="434" fill="url(#b)" r="83.852"/><path d="m486.141 409.986c46.311 0 97.604 73.575 98.41 108.706 1.077 46.9-52.1 98.293-98.41 98.293s-83.853-46.337-83.853-103.498c.001-57.162 37.543-103.501 83.853-103.501z" fill="url(#c)"/><path d="m675.625 653.263c0 154.748-154.5 155.249-154.5 155.249s220.334 0 661 0v-311h-353c-102.333 0-153.5 51.917-153.5 155.751z" fill="url(#d)"/><path d="m1303.953 310.345c-136.047 0-43.953 126.691-197.748 125.96-153.794-.73-223.838.731-223.838 154.778 0 102.698-82.683 153.794-248.043 153.289-325.532 0-435.825 0-435.825 0s-198.499 0-198.499 124.221c120-.396 540.145-.593 1260.432-.593h179.568c0-456.217 0-684.325 0-684.325s0 126.67-136.047 126.67z" fill="#424242"/><circle cx="433.907" cy="511.185" fill="#424242" r="130"/><circle cx="841.084" cy="408.527" fill="url(#e)" r="62.897"/></svg>