<?xml version="1.0" standalone="no"?>
<!DOCTYPE svg PUBLIC "-//W3C//DTD SVG 20010904//EN"
 "http://www.w3.org/TR/2001/REC-SVG-20010904/DTD/svg10.dtd">
<svg version="1.0" xmlns="http://www.w3.org/2000/svg"
 width="260.000000pt" height="260.000000pt" viewBox="0 0 260.000000 260.000000"
 preserveAspectRatio="xMidYMid meet">
<metadata>
Created by potrace 1.11, written by Peter Selinger 2001-2013
</metadata>
<g transform="translate(0.000000,260.000000) scale(0.100000,-0.100000)"
fill="#000000" stroke="none">
<path d="M399 2593 c-1 -4 -2 -352 -3 -773 l-1 -765 -193 -3 -193 -2 3 -88 3
-87 190 0 190 0 0 -435 0 -435 88 -3 87 -3 0 439 0 438 435 -1 434 0 30 -46
c16 -26 40 -66 54 -90 19 -35 184 -310 377 -632 11 -17 29 -49 40 -70 l20 -37
98 0 97 0 0 437 0 438 215 2 c118 0 218 2 223 2 4 1 7 39 7 86 l0 85 -222 2
-223 3 0 770 0 770 -87 3 -88 3 0 -776 0 -775 -227 0 -228 0 -153 258 c-84
141 -159 268 -168 282 -8 14 -147 246 -307 515 l-293 490 -102 3 c-56 1 -103
-1 -103 -5z m187 -261 c11 -20 71 -127 134 -237 62 -110 122 -217 134 -238 19
-33 300 -503 428 -714 26 -43 47 -81 48 -85 0 -5 -171 -8 -380 -8 l-380 0 -1
428 c-1 235 -3 454 -4 487 -13 303 -15 405 -8 405 4 0 17 -17 29 -38z m1394
-1461 c3 0 5 -47 6 -104 1 -145 14 -479 19 -487 2 -3 0 -12 -5 -19 -10 -17 -9
-17 -125 189 -48 85 -95 169 -105 185 -9 17 -32 57 -50 90 -18 33 -44 77 -58
97 -13 20 -21 41 -19 45 5 7 315 11 337 4z"/>
</g>
</svg>
